<svg xmlns="http://www.w3.org/2000/svg" width="600" height="253.079" viewBox="0 0 600 253.079"><path d="M563.158 86.034v62.022h-.034l-108.531-24.389 36.773-11.937c3.096-1.032 2.787-3.164 2.787-3.164l.034-29.825H555.59c1.135 0 7.568.31 7.568 7.293z" fill="#dae8f1"/><path d="M494.153 108.566s.31 2.132-2.787 3.164l-36.773 11.937-5.057-1.135-.034-37.805s0-.241-.035-.62v-.137c.035-1.548.55-5.091 4.954-5.229h39.766l-.034 29.825z" fill="#ecb654"/><path d="M494.256 57.413l-.07 21.328h-39.765c-4.403.138-4.92 3.68-4.954 5.229v.137c.035.379.035.62.035.62l.034 37.805-4.162-.929c-4.438 0-8.05-3.68-8.05-8.187v-52.15l1.892-.24 51.703-6.674s.24-.069.62-.069h.137c.997 0 2.58.447 2.58 3.13z" fill="#ad8d3b"/><path d="M562.677 199.312c-.551 1.445-1.72 2.89-4.232 2.924h-.068c-1.239 0-2.752-.344-4.713-1.204l-98.796-35.914h-.034c-.035-.034-.103-.034-.207-.068-.172-.103-.481-.207-.86-.413a11.774 11.774 0 0 1-1.238-.688 6.743 6.743 0 0 1-1.273-.998 5.55 5.55 0 0 1-.825-.963 11.13 11.13 0 0 1-.585-1.1c-.035-.173-.103-.345-.138-.517l-.103-.516c-.034-.103-.069-.171-.034-.275v-.275l-.035-33.987 4.92-1.617.137-.034 108.53 24.39v48.606s.07 1.307-.446 2.649z" fill="#e2e2e4"/><path d="M449.536 122.532l-4.162-.929c-4.438 0-8.05-3.68-8.05-8.187v-52.15l-14.07 1.823c-3.852.86-4.23 4.3-4.23 5.539v.069c0 .24.034.378.034.378v61.06c.035 2.889 1.72 3.577 3.268 3.611h.241c1.238-.034 2.305-.447 2.305-.447l24.63-7.98h.034l4.92-1.618.137-.034-5.057-1.135zM11.9 0c-3.244 0-6.037 1.177-8.38 3.533C1.173 5.889 0 8.727 0 12.053c0 3.258 1.173 6.062 3.52 8.418 2.342 2.353 5.135 3.533 8.379 3.533 3.309 0 6.14-1.18 8.483-3.533 2.346-2.356 3.519-5.16 3.519-8.417 0-3.327-1.173-6.165-3.52-8.521C18.04 1.177 15.209 0 11.9 0z" fill="#f5a300"/><path d="M591.95.173H445.375c-4.438 0-8.05 3.68-8.05 8.186v52.907l1.892-.24 51.703-6.674s.24-.069.62-.069h.137c.997 0 2.58.447 2.58 3.13l-.07 21.328h61.404c1.135 0 7.568.31 7.568 7.293v62.057l28.552 6.398c4.437 0 8.084-3.68 8.084-8.187L600 8.359c0-4.506-3.612-8.186-8.05-8.186zM19.222 46.55H4.674v113.054H19.22V46.551zm59.383 48.734c-8.885-4.568-14.72-8.552-17.496-11.947-2.776-3.326-4.162-6.821-4.162-10.495 0-4.159 1.682-7.792 5.053-10.912 3.365-3.116 7.413-4.674 12.136-4.674 7.43 0 15.033 3.773 22.814 11.324l9.354-9.663C95.756 48.736 85.278 43.64 74.868 43.64c-8.95 0-16.357 2.845-22.222 8.524-5.865 5.68-8.792 12.814-8.792 21.404 0 6.584 1.837 12.435 5.517 17.56 3.681 5.13 10.62 10.324 20.83 15.59 9.507 4.848 15.617 8.865 18.327 12.05 2.704 3.258 4.06 6.963 4.06 11.119 0 5.063-2.05 9.46-6.148 13.199-4.097 3.743-9.06 5.61-14.891 5.61-8.335 0-16.213-4.19-23.643-12.573l-9.147 10.393c3.887 4.988 8.796 8.906 14.726 11.74 5.93 2.842 12.157 4.262 18.683 4.262 9.783 0 17.932-3.22 24.454-9.663 6.523-6.443 9.787-14.306 9.787-23.59 0-6.578-1.912-12.502-5.73-17.768-3.884-5.195-11.246-10.599-22.075-16.213zm129.192 63.444c6.584-2.532 12.514-6.216 17.781-11.066 5.273-4.85 9.917-11.225 13.939-19.123l-12.26-6.443c-4.438 7.385-8.566 12.731-12.384 16.044-3.815 3.312-8.442 5.968-13.884 7.97a48.356 48.356 0 0 1-16.804 3.003c-11.93 0-21.954-4.2-30.069-12.6-8.114-8.394-12.311-19.158-12.586-32.291h101.73c-.142-15.45-4.3-28.332-12.484-38.655-11.507-14.617-26.9-21.926-46.175-21.926-18.724 0-33.663 7.138-44.826 21.406-8.81 11.222-13.21 24.005-13.21 38.342 0 15.243 5.202 28.906 15.601 40.994 10.402 12.092 24.823 18.132 43.268 18.132 8.318 0 15.772-1.262 22.363-3.787zm-51.6-90.46c7.974-7.135 17.513-10.702 28.61-10.702 6.726 0 13.141 1.42 19.247 4.258 6.103 2.845 11.011 6.584 14.72 11.225 3.715 4.64 6.54 10.843 8.483 18.6h-84.272c2.982-10.393 7.385-18.184 13.213-23.382zm214.99-7.27c-11.414-11.57-25.153-17.355-41.204-17.355-9.205 0-17.544 1.97-25.022 5.923-7.475 3.95-14.083 9.87-19.825 17.768V46.554h-14.55v154.413h14.55v-60.791c6.09 7.42 12.904 12.996 20.448 16.732 7.543 3.742 15.813 5.61 24.808 5.61 15.986 0 29.643-5.8 40.957-17.406 11.31-11.6 16.972-25.717 16.972-42.342 0-16.278-5.713-30.203-17.134-41.772zm-3.743 65.073c-4.076 7.265-9.552 12.924-16.432 16.966-6.873 4.052-14.218 6.078-22.023 6.078-7.95 0-15.5-2.009-22.655-6.023-7.152-4.015-12.653-9.443-16.485-16.295-3.839-6.85-5.755-14.565-5.755-23.144 0-13.08 4.303-24.011 12.907-32.8 8.607-8.79 19.195-13.182 31.778-13.182 8.084 0 15.552 1.991 22.394 5.968 6.839 3.98 12.281 9.567 16.326 16.766 4.039 7.193 6.068 14.806 6.068 22.831 0 7.96-2.043 15.57-6.123 22.835zM.001 245.2h15.466v-2.659H2.715v-10.68h12.752v-2.663H2.715v-8.518h12.866v-2.662H0V245.2zm7.723-29.325l5.452-5.697H9.203l-4.028 5.697h2.549zm22.336 11.141c3.065 0 5.483 1.18 7.255 3.526l2.05-1.27c-.602-1.014-1.335-1.843-2.202-2.493-.86-.657-1.909-1.183-3.147-1.59a12.283 12.283 0 0 0-3.853-.612c-2.123 0-4.039.468-5.748 1.404a10.385 10.385 0 0 0-4.039 3.911 10.511 10.511 0 0 0-1.469 5.425c0 2.893 1.046 5.353 3.14 7.372 2.096 2.015 4.734 3.03 7.913 3.03 2.067 0 3.915-.402 5.531-1.197 1.624-.798 2.914-1.92 3.874-3.371l-2.05-1.345c-1.872 2.353-4.287 3.53-7.238 3.53-1.613 0-3.065-.358-4.365-1.07a7.874 7.874 0 0 1-3.062-3.01 8.135 8.135 0 0 1-1.118-4.139c0-2.25.808-4.165 2.425-5.738 1.62-1.578 3.653-2.363 6.103-2.363zm23.794-2.438c-3.114 0-5.683 1.125-7.723 3.378-1.85 2.05-2.776 4.465-2.776 7.251 0 2.807.98 5.26 2.937 7.362 1.954 2.102 4.476 3.15 7.562 3.15 3.071 0 5.586-1.048 7.54-3.15 1.957-2.102 2.938-4.555 2.938-7.362 0-2.803-.926-5.218-2.776-7.265-2.04-2.243-4.606-3.364-7.702-3.364zm6.797 14.747c-.705 1.255-1.658 2.23-2.859 2.907-1.197.688-2.514 1.028-3.949 1.028s-2.752-.34-3.949-1.028c-1.2-.678-2.153-1.652-2.858-2.907a8.202 8.202 0 0 1-1.057-4.066c0-2.253.775-4.18 2.319-5.765 1.544-1.593 3.395-2.384 5.545-2.384 2.14 0 3.984.79 5.535 2.384 1.555 1.585 2.329 3.512 2.329 5.765 0 1.455-.354 2.81-1.056 4.066zm8.078 5.873h2.59v-27.867h-2.59v27.867zm25.52-16.719c-2.047-2.6-4.785-3.9-8.211-3.9-3.333 0-5.99 1.269-7.974 3.807-1.565 1.995-2.35 4.266-2.35 6.818 0 2.71.926 5.143 2.776 7.29 1.848 2.153 4.414 3.226 7.696 3.226 1.479 0 2.803-.227 3.976-.674a9.958 9.958 0 0 0 3.162-1.968c.939-.863 1.764-1.995 2.48-3.405l-2.181-1.142c-.788 1.31-1.524 2.263-2.202 2.855-.677.585-1.5 1.063-2.47 1.417-.97.351-1.964.533-2.989.533-2.122 0-3.904-.746-5.346-2.246-1.444-1.486-2.19-3.406-2.239-5.738h18.09c-.023-2.745-.763-5.036-2.218-6.873zm-15.614 4.637c.53-1.847 1.314-3.233 2.35-4.159 1.42-1.269 3.116-1.902 5.087-1.902 1.197 0 2.34.251 3.426.753 1.084.506 1.958 1.177 2.615 1.996.664.825 1.166 1.933 1.51 3.312H78.635zm50.653-4.323c-1.01-1.407-2.184-2.463-3.519-3.161-1.338-.702-2.83-1.056-4.482-1.056-2.858 0-5.304 1.028-7.337 3.089-2.033 2.06-3.048 4.53-3.048 7.427 0 2.954 1.004 5.469 3.02 7.533 2.016 2.06 4.445 3.093 7.29 3.093 1.602 0 3.078-.334 4.427-.995 1.351-.667 2.566-1.658 3.65-2.972v3.454h2.552v-27.87h-2.553v11.458zm-.856 10.571c-.685 1.221-1.658 2.188-2.927 2.903-1.266.709-2.608 1.07-4.022 1.07a7.627 7.627 0 0 1-3.942-1.084c-1.225-.718-2.202-1.726-2.927-3.016-.726-1.29-1.088-2.646-1.088-4.067 0-1.424.362-2.772 1.08-4.055.72-1.28 1.69-2.274 2.907-2.976a7.762 7.762 0 0 1 3.987-1.066c2.24 0 4.125.784 5.656 2.346 1.534 1.562 2.301 3.509 2.301 5.83 0 1.528-.344 2.9-1.025 4.115zm11.042-16.952h1.624c-.073.84-.19 1.527-.348 2.057-.162.523-.475 1.262-.942 2.198l1.42.812c.63-1.246 1.05-2.319 1.266-3.223.213-.905.324-2.154.324-3.743v-3.179h-3.344v5.078zm11.123 22.79h2.59v-20.11h-2.59v20.11zm1.283-28.39c-.574 0-1.07.213-1.49.63-.416.419-.626.924-.626 1.516 0 .581.21 1.084.627 1.5.42.416.915.623 1.489.623a2.06 2.06 0 0 0 1.51-.623 2.05 2.05 0 0 0 .626-1.5c0-.592-.21-1.097-.626-1.517a2.066 2.066 0 0 0-1.51-.63zm20.812 8.908c-1.163-.76-2.498-1.142-4-1.142-1.48 0-2.846.34-4.105 1.022-1.255.691-2.4 1.72-3.436 3.096v-3.602h-2.587v20.11h2.587v-7.378c0-2.646.124-4.472.371-5.47.392-1.524 1.208-2.807 2.446-3.842 1.242-1.036 2.642-1.552 4.207-1.552 1.37 0 2.477.337 3.327 1.008.85.67 1.427 1.672 1.723 3.003.193.774.289 2.319.289 4.637v9.594h2.587v-10.347c0-2.742-.275-4.75-.83-6.048a6.842 6.842 0 0 0-2.58-3.089zm26.287 2.866c-1.207-1.43-2.463-2.449-3.767-3.075-1.296-.626-2.703-.935-4.206-.935-1.813 0-3.537.47-5.17 1.406a10.168 10.168 0 0 0-3.84 3.815 10.274 10.274 0 0 0-1.386 5.205c0 1.858.444 3.567 1.331 5.119.888 1.548 2.147 2.786 3.774 3.705a10.45 10.45 0 0 0 5.215 1.379c1.579 0 3.072-.334 4.479-.99a9.777 9.777 0 0 0 3.57-2.842v1.039c0 2.218-.258 3.818-.777 4.812-.516.994-1.387 1.827-2.597 2.48-1.218.661-2.708.988-4.472.988-1.79 0-3.285-.324-4.496-.96-1.208-.64-2.195-1.627-2.959-2.955h-2.81c.726 1.579 1.52 2.78 2.384 3.598.86.826 1.981 1.48 3.354 1.968 1.372.485 2.924.736 4.647.736 2.356 0 4.369-.506 6.044-1.5 1.675-.997 2.852-2.421 3.53-4.272.491-1.304.739-3.368.739-6.189v-16.023h-2.587v3.491zm-2.043 12.034c-1.448 1.427-3.361 2.146-5.738 2.146-2.353 0-4.269-.719-5.748-2.164-1.48-1.441-2.215-3.268-2.215-5.473 0-1.451.357-2.807 1.07-4.055a7.648 7.648 0 0 1 2.958-2.935 8.139 8.139 0 0 1 4.083-1.066 7.9 7.9 0 0 1 3.939 1.035c1.217.692 2.16 1.628 2.824 2.818.667 1.19 1 2.538 1 4.055 0 2.33-.725 4.207-2.173 5.639zm19.396-19.263l5.452-5.69h-3.973l-4.028 5.69h2.549zm8.335 7.12c-2.047-2.6-4.789-3.9-8.215-3.9-3.33 0-5.985 1.27-7.974 3.808-1.565 1.995-2.346 4.265-2.346 6.818 0 2.71.922 5.143 2.773 7.293 1.85 2.15 4.417 3.223 7.695 3.223 1.48 0 2.807-.224 3.977-.678a9.84 9.84 0 0 0 3.164-1.964c.936-.863 1.762-1.999 2.477-3.402l-2.18-1.146c-.789 1.311-1.525 2.264-2.202 2.855-.678.585-1.5 1.063-2.47 1.418a8.715 8.715 0 0 1-2.986.533c-2.123 0-3.908-.746-5.35-2.24-1.44-1.496-2.19-3.405-2.239-5.74h18.095c-.025-2.75-.764-5.044-2.22-6.877zm-15.618 4.638c.53-1.847 1.314-3.234 2.353-4.16 1.418-1.268 3.113-1.901 5.088-1.901 1.194 0 2.336.254 3.423.76 1.083.502 1.957 1.17 2.618 1.995.66.822 1.162 1.926 1.506 3.306H209.05zm36.787-7.395c-1.162-.76-2.497-1.142-4-1.142-1.48 0-2.845.34-4.104 1.022-1.256.691-2.401 1.72-3.437 3.096v-3.602h-2.587v20.11h2.587v-7.378c0-2.646.124-4.472.372-5.47.392-1.524 1.207-2.807 2.446-3.842 1.242-1.036 2.642-1.552 4.207-1.552 1.369 0 2.476.337 3.326 1.008.85.67 1.428 1.672 1.723 3.003.193.774.29 2.319.29 4.637v9.594h2.586v-10.347c0-2.742-.275-4.75-.829-6.048a6.843 6.843 0 0 0-2.58-3.089zm9.852-8.908c-.578 0-1.077.213-1.493.63-.417.419-.626.924-.626 1.516 0 .581.21 1.084.626 1.5.416.416.915.623 1.493.623.584 0 1.09-.207 1.506-.623a2.05 2.05 0 0 0 .626-1.5c0-.592-.21-1.097-.626-1.517a2.064 2.064 0 0 0-1.506-.63zm-1.287 28.39h2.59v-20.11h-2.59v20.11zm25.52-16.723c-2.047-2.6-4.785-3.9-8.211-3.9-3.333 0-5.99 1.269-7.974 3.807-1.565 1.995-2.35 4.266-2.35 6.818 0 2.71.926 5.143 2.777 7.29 1.847 2.153 4.413 3.226 7.695 3.226 1.48 0 2.803-.227 3.976-.674a9.958 9.958 0 0 0 3.162-1.968c.939-.863 1.764-1.995 2.48-3.405l-2.18-1.142c-.789 1.31-1.525 2.263-2.202 2.855-.678.585-1.5 1.063-2.47 1.417-.97.351-1.965.533-2.99.533-2.122 0-3.904-.746-5.345-2.246-1.445-1.486-2.192-3.406-2.24-5.738h18.09c-.023-2.745-.763-5.036-2.218-6.873zm-15.614 4.637c.53-1.847 1.314-3.233 2.35-4.159 1.42-1.269 3.116-1.902 5.087-1.902 1.197 0 2.336.251 3.427.753 1.083.506 1.957 1.177 2.614 1.996.664.825 1.166 1.933 1.51 3.312h-14.988zm37.275 1.366c0 2.518-.127 4.159-.385 4.936a5.348 5.348 0 0 1-2.085 2.742c-1.005.698-2.229 1.05-3.674 1.05-1.445 0-2.686-.362-3.729-1.078-1.042-.712-1.747-1.685-2.119-2.92-.248-.86-.368-2.436-.368-4.73v-9.388h-2.59v9.684c0 2.858.323 4.998.97 6.422.647 1.424 1.627 2.532 2.938 3.327 1.314.798 2.948 1.193 4.909 1.193 1.957 0 3.587-.395 4.884-1.193a7.421 7.421 0 0 0 2.924-3.3c.647-1.403.967-3.494.967-6.264v-9.869h-2.642v9.388zm12.549-9.044c-.874.571-1.706 1.438-2.494 2.594v-2.938h-2.646v20.11h2.646V238.4c0-3.485.158-5.8.478-6.949.416-1.493 1.029-2.587 1.83-3.299.805-.705 1.637-1.063 2.497-1.063.365 0 .826.117 1.366.351l1.349-2.177c-.812-.458-1.58-.685-2.291-.685-.95 0-1.861.29-2.735.86zm12.409 8.327c-1.583-.815-2.618-1.527-3.114-2.126-.488-.591-.74-1.218-.74-1.868 0-.74.3-1.386.905-1.943.592-.55 1.311-.833 2.15-.833 1.325 0 2.677.671 4.06 2.016l1.664-1.72c-1.878-1.806-3.739-2.714-5.59-2.714-1.592 0-2.91.502-3.948 1.517-1.043 1.008-1.57 2.274-1.57 3.808 0 1.17.328 2.205.985 3.12.65.915 1.885 1.834 3.701 2.776 1.692.86 2.78 1.576 3.261 2.14.482.581.723 1.238.723 1.978 0 .9-.362 1.685-1.094 2.35-.726.66-1.607.997-2.65.997-1.482 0-2.882-.747-4.206-2.24l-1.624 1.848a7.226 7.226 0 0 0 2.621 2.091 7.61 7.61 0 0 0 3.32.753c1.74 0 3.189-.57 4.348-1.716 1.16-1.142 1.744-2.546 1.744-4.193 0-1.17-.34-2.223-1.021-3.162-.692-.922-2.003-1.888-3.925-2.879zm37.506-4.972c-1.008-1.407-2.181-2.463-3.52-3.161-1.337-.702-2.83-1.056-4.482-1.056-2.858 0-5.304 1.028-7.337 3.089-2.03 2.06-3.048 4.53-3.048 7.427 0 2.954 1.008 5.469 3.02 7.533 2.016 2.06 4.448 3.093 7.293 3.093 1.603 0 3.079-.334 4.427-.995 1.349-.667 2.566-1.658 3.647-2.972v3.454h2.552v-27.87h-2.552v11.458zm-.853 10.571c-.688 1.221-1.662 2.188-2.931 2.903-1.266.709-2.608 1.07-4.022 1.07a7.607 7.607 0 0 1-3.938-1.084c-1.228-.718-2.205-1.726-2.931-3.016-.723-1.29-1.087-2.646-1.087-4.067 0-1.424.361-2.772 1.08-4.055.719-1.28 1.685-2.274 2.907-2.976a7.762 7.762 0 0 1 3.987-1.066c2.243 0 4.124.784 5.658 2.346 1.531 1.562 2.298 3.509 2.298 5.83 0 1.528-.344 2.9-1.021 4.115zm23.877-4.882c0 2.518-.127 4.159-.385 4.936a5.324 5.324 0 0 1-2.081 2.742c-1.008.698-2.233 1.05-3.674 1.05-1.445 0-2.686-.362-3.729-1.078-1.042-.712-1.747-1.685-2.119-2.92-.248-.86-.371-2.436-.371-4.73v-9.388h-2.587v9.684c0 2.858.327 4.998.97 6.422.647 1.424 1.623 2.532 2.938 3.327 1.317.798 2.948 1.193 4.905 1.193 1.96 0 3.584-.395 4.888-1.193 1.3-.795 2.274-1.896 2.924-3.3.647-1.403.967-3.494.967-6.264v-9.869h-2.646v9.388zm33-8.762c-1.163-.76-2.497-1.142-4-1.142-1.48 0-2.846.34-4.101 1.022-1.256.691-2.405 1.72-3.433 3.096v-3.602h-2.594v20.11h2.594v-7.378c0-2.646.12-4.472.364-5.47.396-1.524 1.215-2.807 2.45-3.842 1.238-1.036 2.641-1.552 4.207-1.552 1.365 0 2.473.337 3.326 1.008.846.67 1.424 1.672 1.727 3.003.186.774.282 2.319.282 4.637v9.594h2.587v-10.347c0-2.742-.272-4.75-.829-6.048a6.867 6.867 0 0 0-2.58-3.089zm23.572 8.762c0 2.518-.128 4.159-.39 4.936-.378 1.132-1.076 2.05-2.077 2.742-1.008.698-2.236 1.05-3.674 1.05-1.445 0-2.69-.362-3.729-1.078-1.042-.712-1.754-1.685-2.122-2.92-.244-.86-.372-2.436-.372-4.73v-9.388h-2.586v9.684c0 2.858.326 4.998.973 6.422.647 1.424 1.62 2.532 2.938 3.327 1.314.798 2.948 1.193 4.905 1.193 1.96 0 3.584-.395 4.885-1.193a7.448 7.448 0 0 0 2.927-3.3c.644-1.403.964-3.494.964-6.264v-9.869h-2.642v9.388zm35.298-8.851c-1.06-.702-2.291-1.053-3.677-1.053-1.49 0-2.876.41-4.17 1.228-1.29.819-2.366 2.016-3.226 3.595-.41-1.183-.884-2.088-1.445-2.728-.55-.633-1.27-1.142-2.143-1.524a6.878 6.878 0 0 0-2.776-.57c-1.442 0-2.821.395-4.121 1.18-.957.59-1.875 1.527-2.776 2.81v-3.475h-2.59v20.11h2.59v-8.524c0-2.508.247-4.376.743-5.6.499-1.215 1.27-2.188 2.315-2.903 1.039-.723 2.157-1.088 3.35-1.088 1.036 0 1.93.262 2.683.788a4.128 4.128 0 0 1 1.576 2.088c.303.867.45 2.515.45 4.943v10.296h2.594v-7.874c0-2.882.238-4.94.712-6.175.482-1.23 1.246-2.218 2.278-2.954 1.039-.74 2.184-1.112 3.433-1.112 1.035 0 1.923.248 2.666.74a4.009 4.009 0 0 1 1.575 1.95c.307.805.458 2.288.458 4.445v10.98h2.645v-10.98c0-2.511-.258-4.4-.77-5.655-.52-1.256-1.311-2.236-2.374-2.938zm19.296-9.964l-4.031 5.69h2.549l5.452-5.69h-3.97zm6.85 12.81c-2.044-2.6-4.786-3.9-8.212-3.9-3.326 0-5.985 1.27-7.974 3.808-1.565 1.995-2.346 4.265-2.346 6.818 0 2.71.922 5.143 2.773 7.293 1.85 2.15 4.413 3.223 7.695 3.223 1.48 0 2.807-.224 3.977-.678a9.767 9.767 0 0 0 3.165-1.964c.935-.863 1.76-1.999 2.476-3.402l-2.18-1.146c-.788 1.311-1.525 2.264-2.199 2.855-.677.585-1.506 1.063-2.473 1.418a8.68 8.68 0 0 1-2.983.533c-2.122 0-3.907-.746-5.352-2.24-1.441-1.496-2.184-3.405-2.24-5.74h18.095c-.028-2.75-.767-5.044-2.223-6.877zm-15.615 4.638c.53-1.847 1.314-3.234 2.357-4.16 1.417-1.268 3.11-1.901 5.084-1.901 1.197 0 2.34.254 3.423.76 1.087.502 1.96 1.17 2.618 1.995.66.822 1.162 1.926 1.506 3.306h-14.988zm26.818-7.677c-.874.571-1.706 1.438-2.494 2.594v-2.938h-2.645v20.11h2.645V238.4c0-3.485.158-5.8.478-6.949.416-1.493 1.029-2.587 1.83-3.299.805-.705 1.638-1.063 2.498-1.063.364 0 .822.117 1.365.351l1.349-2.177c-.812-.458-1.58-.685-2.291-.685-.953 0-1.861.29-2.735.86zm8.121-8.626c-.577 0-1.073.213-1.49.63-.415.419-.625.924-.625 1.516 0 .581.21 1.084.626 1.5a2.03 2.03 0 0 0 1.49.623c.588 0 1.09-.207 1.513-.623a2.06 2.06 0 0 0 .623-1.5c0-.592-.21-1.097-.623-1.517a2.085 2.085 0 0 0-1.514-.63zm-1.283 28.39h2.587v-20.11h-2.587v20.11zm25.427-16.41c-1.008-1.406-2.181-2.462-3.523-3.16-1.328-.702-2.827-1.056-4.479-1.056-2.858 0-5.304 1.028-7.337 3.089-2.03 2.06-3.048 4.53-3.048 7.427 0 2.954 1.008 5.469 3.02 7.533 2.016 2.06 4.448 3.093 7.293 3.093 1.603 0 3.079-.334 4.428-.995 1.348-.667 2.562-1.658 3.646-2.972v10.809h2.552v-27.465h-2.552v3.698zm-.853 10.572c-.688 1.221-1.662 2.188-2.931 2.903-1.266.709-2.608 1.07-4.022 1.07a7.606 7.606 0 0 1-3.938-1.084c-1.228-.718-2.205-1.726-2.931-3.016-.722-1.29-1.087-2.646-1.087-4.067 0-1.424.361-2.772 1.08-4.055.719-1.28 1.686-2.274 2.907-2.976a7.762 7.762 0 0 1 3.987-1.066c2.243 0 4.124.784 5.658 2.346 1.531 1.562 2.298 3.509 2.298 5.83 0 1.528-.344 2.9-1.021 4.115zm23.824-4.882c0 2.518-.127 4.159-.389 4.936-.378 1.132-1.077 2.05-2.078 2.742-1.008.698-2.236 1.05-3.673 1.05-1.445 0-2.69-.362-3.73-1.078-1.042-.712-1.75-1.685-2.118-2.92-.248-.86-.375-2.436-.375-4.73v-9.388h-2.587v9.684c0 2.858.327 4.998.973 6.422.647 1.424 1.62 2.532 2.938 3.327 1.314.798 2.948 1.193 4.905 1.193 1.961 0 3.585-.395 4.885-1.193a7.448 7.448 0 0 0 2.927-3.3c.644-1.403.967-3.494.967-6.264v-9.869h-2.645v9.388zm25.948-6.003c-2.05-2.6-4.786-3.9-8.212-3.9-3.333 0-5.989 1.269-7.974 3.807-1.568 1.995-2.353 4.266-2.353 6.818 0 2.71.93 5.143 2.777 7.29 1.854 2.153 4.416 3.226 7.691 3.226 1.486 0 2.807-.227 3.984-.674a10.013 10.013 0 0 0 3.165-1.968c.935-.863 1.76-1.995 2.476-3.405l-2.18-1.142c-.792 1.31-1.524 2.263-2.206 2.855-.677.585-1.503 1.063-2.466 1.417a8.755 8.755 0 0 1-2.993.533c-2.119 0-3.9-.746-5.342-2.246-1.445-1.486-2.191-3.406-2.243-5.738h18.09c-.023-2.745-.763-5.036-2.214-6.873zm-15.614 4.637c.53-1.847 1.31-3.233 2.349-4.159 1.417-1.269 3.113-1.902 5.088-1.902 1.193 0 2.332.251 3.422.753 1.084.506 1.958 1.177 2.618 1.996.664.825 1.163 1.933 1.51 3.312H581.86z" fill="#005fa1"/></svg>